<svg width="66" height="75" viewBox="0 0 66 75" fill="none" xmlns="http://www.w3.org/2000/svg">
<g clip-path="url(#clip0)" filter="url(#filter0_ddd)">
<path d="M59.9998 4.98975C55.8123 10.6997 39.4296 23.5154 7.39648 29.098C8.1518 28.3131 9.58267 26.5476 9.26359 25.765L59.9998 4.98975Z" fill="#99DCE0" stroke="#99DCE0" stroke-width="0.708614"/>
<path d="M56.893 27.1709C56.8725 28.931 56.699 30.507 56.372 31.8987C56.066 33.2906 55.616 34.5493 55.0245 35.675C54.4525 36.7802 53.7478 37.7831 52.9104 38.6836C52.0938 39.5637 51.1539 40.3927 50.0921 41.1705C48.05 42.6441 45.8137 43.7596 43.3833 44.5169C40.953 45.2536 38.5126 45.6221 36.0619 45.6221C35.6534 45.6221 35.245 45.6119 34.8366 45.5914C34.4485 45.571 34.0503 45.5402 33.6419 45.4993L32.6309 63.518C32.5716 63.9595 32.4373 64.172 32.1102 64.4695C32.0693 64.551 31.7221 64.715 31.0686 64.9605C30.4151 65.206 29.5982 65.4925 28.6179 65.82L27.6529 66.1425L26.688 66.465C26.0753 66.69 25.5341 66.8945 25.0644 67.079C24.5947 67.2635 24.1556 67.427 23.7471 67.5705C23.3387 67.7135 22.9405 67.8155 22.5524 67.877C22.1644 67.959 21.756 68 21.3271 68C21.0412 68 20.8165 67.928 20.6531 67.785C20.4897 67.6415 20.408 67.3655 20.408 66.9565L20.745 54.894C20.8063 53.8499 20.8778 52.8062 20.9595 51.7626C21.0616 50.698 21.1535 49.4903 21.2352 48.1397L21.8172 40.802C21.9397 39.308 22.0521 37.8139 22.1542 36.3196C22.2563 34.8256 22.3584 33.4032 22.4605 32.0523C22.5626 30.7014 22.6545 29.4427 22.7362 28.2761C22.8179 27.089 22.8894 26.0554 22.9507 25.1753C21.8478 25.4209 20.9595 25.6051 20.2855 25.7279C19.632 25.8303 19.1316 25.8814 18.7845 25.8814C18.3556 25.8814 18.1411 25.6972 18.1411 25.3288C18.427 24.3259 18.6926 23.3435 18.9376 22.3815C19.1623 21.5628 19.3869 20.7237 19.6116 19.864C19.8566 18.9839 20.0609 18.2472 20.2242 17.6536C20.3264 17.2852 20.4387 17.0089 20.5612 16.8247C20.7042 16.62 20.8778 16.4665 21.082 16.3641C21.3066 16.2413 21.5823 16.139 21.9091 16.0571C22.2563 15.9548 22.6749 15.8218 23.1651 15.658C23.5531 15.5352 24.0943 15.4022 24.7887 15.2589C25.5035 15.0952 26.3101 14.9416 27.2087 14.7984C28.1278 14.6347 29.1182 14.4812 30.1802 14.3379C31.2422 14.1946 32.3144 14.0718 33.3968 13.9695C34.4995 13.8467 35.5819 13.7545 36.6439 13.6931C37.7059 13.6113 38.7066 13.5703 39.646 13.5703C41.9743 13.5703 44.1798 13.7852 46.2629 14.2151C48.3461 14.6449 50.1738 15.3817 51.7462 16.4255C53.3187 17.4489 54.5644 18.8407 55.4835 20.6009C56.423 22.3406 56.893 24.5306 56.893 27.1709ZM34.4995 36.3811C34.4995 36.6062 34.5404 36.8109 34.6222 36.9951C34.7037 37.1589 34.9285 37.2408 35.2961 37.2408C35.8678 37.2408 36.5418 37.118 37.3179 36.8723C38.1143 36.6062 38.9006 36.2173 39.6766 35.7057C40.4731 35.1941 41.2084 34.5596 41.8824 33.8023C42.5563 33.0449 43.0669 32.1546 43.4139 31.1313C43.557 30.7219 43.6693 30.2 43.751 29.5656C43.8531 28.931 43.9041 28.184 43.9041 27.3244C43.9041 25.8917 43.4037 24.8376 42.4031 24.1621C41.4228 23.4868 40.1362 23.149 38.5433 23.149C38.2777 23.149 37.9714 23.1695 37.6242 23.2104C37.2975 23.2309 36.9809 23.2821 36.6746 23.364C36.3887 23.4458 36.1436 23.5482 35.9394 23.671C35.7351 23.7733 35.6228 23.9166 35.6024 24.1008L35.5411 24.7762C35.5207 25.0423 35.4798 25.4823 35.4186 26.0964C35.3573 26.6899 35.2858 27.3756 35.2042 28.1533C35.1429 28.931 35.0714 29.7498 34.9897 30.6093C34.9285 31.469 34.857 32.2876 34.7753 33.0654C34.7141 33.8432 34.6528 34.5288 34.5914 35.1224C34.5506 35.7159 34.5201 36.1356 34.4995 36.3811Z" fill="#2FBAC2"/>
<path d="M7.21559 24.2896C6.73284 24.1838 6.21326 24.1157 5.75342 24.0756C31.6069 6.74828 51.7333 3.93785 59.5145 4.71478L8.83721 25.04C8.69671 24.8673 8.49323 24.7352 8.27951 24.6322C7.97596 24.4858 7.60206 24.3745 7.21559 24.2896Z" fill="#2FBAC2" stroke="#2FBAC2"/>
</g>
<defs>
<filter id="filter0_ddd" x="0" y="0" width="66" height="75" filterUnits="userSpaceOnUse" color-interpolation-filters="sRGB">
<feFlood flood-opacity="0" result="BackgroundImageFix"/>
<feColorMatrix in="SourceAlpha" type="matrix" values="0 0 0 0 0 0 0 0 0 0 0 0 0 0 0 0 0 0 127 0" result="hardAlpha"/>
<feOffset dy="1"/>
<feGaussianBlur stdDeviation="2.5"/>
<feColorMatrix type="matrix" values="0 0 0 0 0 0 0 0 0 0 0 0 0 0 0 0 0 0 0.2 0"/>
<feBlend mode="normal" in2="BackgroundImageFix" result="effect1_dropShadow"/>
<feColorMatrix in="SourceAlpha" type="matrix" values="0 0 0 0 0 0 0 0 0 0 0 0 0 0 0 0 0 0 127 0" result="hardAlpha"/>
<feOffset dy="3"/>
<feGaussianBlur stdDeviation="2"/>
<feColorMatrix type="matrix" values="0 0 0 0 0 0 0 0 0 0 0 0 0 0 0 0 0 0 0.12 0"/>
<feBlend mode="normal" in2="effect1_dropShadow" result="effect2_dropShadow"/>
<feColorMatrix in="SourceAlpha" type="matrix" values="0 0 0 0 0 0 0 0 0 0 0 0 0 0 0 0 0 0 127 0" result="hardAlpha"/>
<feOffset dy="2"/>
<feGaussianBlur stdDeviation="2"/>
<feColorMatrix type="matrix" values="0 0 0 0 0 0 0 0 0 0 0 0 0 0 0 0 0 0 0.14 0"/>
<feBlend mode="normal" in2="effect2_dropShadow" result="effect3_dropShadow"/>
<feBlend mode="normal" in="SourceGraphic" in2="effect3_dropShadow" result="shape"/>
</filter>
<clipPath id="clip0">
<rect width="56" height="64" fill="white" transform="translate(5 4)"/>
</clipPath>
</defs>
</svg>
