<svg width="390" height="72" viewBox="0 0 390 72" fill="none" xmlns="http://www.w3.org/2000/svg">
<path d="M46.2458 31.4428C46.2214 33.5414 46.0142 35.4204 45.6243 37.0798C45.2587 38.7392 44.7225 40.24 44.0157 41.5821C43.3333 42.8999 42.4925 44.0956 41.4932 45.1693C40.5184 46.2186 39.3973 47.2069 38.1299 48.1342C35.6927 49.8912 33.024 51.2212 30.1237 52.1241C27.2235 53.0025 24.311 53.4418 21.3864 53.4418C20.899 53.4418 20.4115 53.4296 19.9241 53.4052C19.461 53.3808 18.9858 53.3442 18.4983 53.2954L17.2919 66.6558L16.6704 67.7905C16.6217 67.8882 16.2073 68.0834 15.4274 68.3762C14.6475 68.669 13.6727 69.0107 12.5028 69.4011L10.1997 70.1698C9.4685 70.4382 8.82265 70.6823 8.26209 70.9019C7.70154 71.1215 7.17754 71.3167 6.6901 71.4876C6.20266 71.6584 5.72741 71.7804 5.26434 71.8536C4.80127 71.9512 4.31384 72 3.80202 72C3.46082 72 3.19273 71.9146 2.99775 71.7438C2.80277 71.573 2.70529 71.2435 2.70529 70.7555L3.10742 64.4962C3.18054 63.2517 3.26584 62.0071 3.36333 60.7626C3.48519 59.4936 3.59486 58.0539 3.69235 56.4433L4.38695 47.695C4.53318 45.9136 4.66723 44.1322 4.78909 42.3508C4.91095 40.5694 5.03281 38.8734 5.15467 37.2628C5.27653 35.6523 5.3862 34.1515 5.48369 32.7606C5.58118 31.3452 5.66648 30.1129 5.73959 29.0636C4.42351 29.3564 3.36333 29.576 2.55906 29.7224C1.77915 29.8444 1.18204 29.9054 0.767717 29.9054C0.255906 29.9054 0 29.6858 0 29.2466C0.341207 28.0508 0.658043 26.8795 0.950506 25.7326C1.2186 24.7565 1.48669 23.756 1.75478 22.7311C2.04724 21.6818 2.29096 20.8033 2.48594 20.0956C2.6078 19.6563 2.74184 19.3269 2.88808 19.1073C3.05868 18.8632 3.26584 18.6802 3.50956 18.5582C3.77765 18.4118 4.10667 18.2898 4.49663 18.1922C4.91095 18.0702 5.41057 17.9115 5.9955 17.7163C6.45857 17.5699 7.10442 17.4113 7.93307 17.2405C8.78609 17.0452 9.74878 16.8622 10.8211 16.6914C11.9179 16.4962 13.0999 16.3132 14.3673 16.1424C15.6346 15.9715 16.9141 15.8251 18.2058 15.7031C19.5219 15.5567 20.8136 15.4469 22.081 15.3737C23.3483 15.2761 24.5426 15.2273 25.6637 15.2273C28.4421 15.2273 31.0742 15.4835 33.5602 15.9959C36.0461 16.5084 38.2274 17.3869 40.104 18.6314C41.9807 19.8516 43.4674 21.5109 44.5641 23.6096C45.6852 25.6838 46.2458 28.2949 46.2458 31.4428ZM19.5219 42.424C19.5219 42.6924 19.5707 42.9365 19.6682 43.1561C19.7657 43.3513 20.0337 43.4489 20.4724 43.4489C21.1549 43.4489 21.9591 43.3025 22.8853 43.0097C23.8358 42.6924 24.7741 42.2288 25.7002 41.6187C26.6507 41.0086 27.5281 40.2522 28.3324 39.3493C29.1367 38.4464 29.746 37.3849 30.1603 36.1647C30.3309 35.6767 30.4649 35.0544 30.5624 34.2979C30.6843 33.5414 30.7452 32.6507 30.7452 31.6258C30.7452 29.9176 30.1481 28.6609 28.9539 27.8556C27.784 27.0503 26.2486 26.6477 24.3476 26.6477C24.0307 26.6477 23.6652 26.6721 23.2508 26.7209C22.8609 26.7453 22.4831 26.8063 22.1175 26.9039C21.7763 27.0015 21.4839 27.1235 21.2402 27.27C20.9964 27.392 20.8624 27.5628 20.838 27.7824L20.7649 28.5877C20.7405 28.9049 20.6918 29.4296 20.6187 30.1617C20.5456 30.8693 20.4603 31.6868 20.3628 32.6141C20.2897 33.5414 20.2043 34.5175 20.1069 35.5425C20.0337 36.5674 19.9484 37.5435 19.851 38.4708C19.7778 39.3981 19.7047 40.2156 19.6316 40.9232C19.5829 41.6309 19.5463 42.1312 19.5219 42.424Z" fill="#2FBAC2"/>
<path d="M69.4601 28.6243C71.7754 28.6243 73.8714 29.0636 75.748 29.942C77.649 30.7961 79.2698 31.9187 80.6102 33.3096C81.9751 34.6762 83.0231 36.2135 83.7542 37.9217C84.4854 39.6299 84.851 41.3381 84.851 43.0463C84.851 44.5592 84.3879 46.0844 83.4617 47.6218C82.5356 49.1347 81.2317 50.5013 79.5501 51.7214C77.8928 52.9415 75.8943 53.9298 73.5546 54.6863C71.2148 55.4428 68.6436 55.8211 65.8408 55.8211C64.3785 55.8211 62.8431 55.6746 61.2345 55.3818C61.332 56.4311 61.6367 57.334 62.1485 58.0905C62.6603 58.847 63.3061 59.4692 64.0861 59.9573C64.866 60.4454 65.7433 60.8114 66.7182 61.0554C67.7175 61.275 68.7411 61.3849 69.7891 61.3849C70.9589 61.3849 72.08 61.2872 73.1524 61.092C74.2492 60.8724 75.2971 60.5918 76.2964 60.2501C77.2956 59.9085 78.2583 59.5303 79.1845 59.1154C80.1106 58.7006 80.988 58.2857 81.8166 57.8709C82.036 57.8221 82.2188 57.7855 82.365 57.7611C82.5356 57.7123 82.694 57.6879 82.8403 57.6879C82.8403 57.6879 82.8281 57.8831 82.8037 58.2735C82.8037 58.664 82.8037 59.213 82.8037 59.9207C82.8037 60.6284 82.7915 61.4825 82.7672 62.483C82.7672 63.4835 82.755 64.5938 82.7306 65.8139C82.8037 65.936 82.8524 66.058 82.8768 66.18C82.9012 66.302 82.9134 66.3996 82.9134 66.4728C82.9134 66.7656 82.6453 67.0829 82.1091 67.4245C81.5729 67.7661 80.8661 68.12 79.9887 68.486C79.1357 68.8521 78.1487 69.2059 77.0276 69.5475C75.9308 69.8892 74.8097 70.1942 73.6642 70.4626C72.5187 70.7555 71.4098 70.9751 70.3375 71.1215C69.2651 71.2923 68.3268 71.3777 67.5225 71.3777C64.8903 71.3777 62.3313 70.9141 59.8453 69.9868C57.3838 69.0839 55.1903 67.7783 53.2649 66.0702C51.3639 64.362 49.8406 62.2878 48.6952 59.8475C47.5497 57.4072 46.9769 54.6619 46.9769 51.6116C46.9769 48.4148 47.5253 45.4255 48.622 42.6436C49.7188 39.8373 51.2542 37.3971 53.2283 35.3228C55.2268 33.2486 57.6031 31.6136 60.3571 30.4179C63.1112 29.2222 66.1455 28.6243 69.4601 28.6243ZM69.0214 38.361C68.0221 38.361 67.096 38.5806 66.243 39.0198C65.4143 39.4347 64.6466 40.0447 63.9398 40.85C63.2574 41.6309 62.6603 42.5826 62.1485 43.7051C61.6367 44.8033 61.2223 46.0234 60.9055 47.3655C63.4158 46.9263 65.4996 46.4626 67.1569 45.9746C68.8142 45.4865 70.1425 44.9985 71.1417 44.5104C72.141 43.998 72.8478 43.4977 73.2621 43.0097C73.6764 42.4972 73.8836 42.0092 73.8836 41.5455C73.8836 41.1063 73.713 40.6914 73.3718 40.301C73.0549 39.9105 72.6528 39.5689 72.1653 39.2761C71.6779 38.9832 71.1417 38.7636 70.5568 38.6172C69.9962 38.4464 69.4844 38.361 69.0214 38.361Z" fill="#2FBAC2"/>
<path d="M119.325 39.6787C118.813 39.6299 118.241 39.5811 117.607 39.5323C116.973 39.4591 116.303 39.4225 115.596 39.4225C114.524 39.4225 113.427 39.5201 112.306 39.7153C111.209 39.8861 110.186 40.24 109.235 40.7768C108.285 41.3137 107.468 42.058 106.786 43.0097C106.103 43.937 105.665 45.1449 105.47 46.6335C105.299 48.4393 105.153 49.9278 105.031 51.0991C104.933 52.2461 104.86 53.1978 104.812 53.9542C104.763 54.6863 104.714 55.2842 104.665 55.7478C104.641 56.1871 104.617 56.6019 104.592 56.9924C104.592 57.09 104.568 57.3584 104.519 57.7977C104.495 58.2369 104.446 58.7494 104.373 59.335C104.3 59.9207 104.227 60.5552 104.154 61.2384C104.105 61.9217 104.044 62.5562 103.971 63.1418C103.898 63.7275 103.837 64.24 103.788 64.6792C103.764 65.1185 103.751 65.3869 103.751 65.4845C103.751 65.6797 103.751 65.8505 103.751 65.997C103.776 66.119 103.788 66.241 103.788 66.363C103.788 66.5582 103.69 66.729 103.496 66.8754C103.325 66.9975 102.923 67.1439 102.289 67.3147L92.6012 70.7921C92.3331 70.8897 91.9798 71.0117 91.5411 71.1581C91.1024 71.3045 90.6759 71.3777 90.2615 71.3777C89.9203 71.3777 89.6157 71.2923 89.3476 71.1215C89.1039 70.9507 88.982 70.6579 88.982 70.243L92.126 33.9685C92.1991 33.1632 92.2844 32.6141 92.3819 32.3213C92.5038 32.0041 92.784 31.7966 93.2227 31.699C95.4406 31.2598 97.7315 30.8205 100.096 30.3813C102.46 29.9176 104.751 29.332 106.969 28.6243C107.163 28.6243 107.273 28.6609 107.298 28.7341C107.346 28.7829 107.371 28.8683 107.371 28.9903C107.371 29.0391 107.358 29.1124 107.334 29.21C107.334 29.3076 107.298 29.5272 107.224 29.8688C107.176 30.2105 107.09 30.7351 106.969 31.4428C106.871 32.1261 106.725 33.09 106.53 34.3345C107.651 33.456 108.882 32.6507 110.222 31.9187C111.587 31.1866 112.952 30.5643 114.317 30.0519C115.681 29.515 116.998 29.1002 118.265 28.8073C119.532 28.4901 120.641 28.3315 121.592 28.3315L119.325 39.6787Z" fill="#2FBAC2"/>
<path d="M161.111 64.9354C161.038 65.7407 160.94 66.302 160.818 66.6192C160.696 66.9121 160.428 67.1073 160.014 67.2049C157.942 67.7905 155.773 68.3884 153.507 68.9985C151.265 69.5841 149.083 70.365 146.963 71.3411C146.89 71.3655 146.78 71.3777 146.634 71.3777C146.439 71.3777 146.317 71.3289 146.268 71.2313C146.244 71.1337 146.232 71.0239 146.232 70.9019C146.232 70.8531 146.232 70.7677 146.232 70.6457C146.256 70.5236 146.293 70.2918 146.341 69.9502C146.39 69.633 146.451 69.1815 146.524 68.5958C146.622 68.0102 146.744 67.2293 146.89 66.2532C144.16 68.0346 141.735 69.3279 139.615 70.1332C137.519 70.9629 135.654 71.3777 134.021 71.3777C129.951 71.3777 126.978 70.4016 125.101 68.4494C123.249 66.4728 122.323 63.5323 122.323 59.6279C122.323 58.9202 122.335 58.2003 122.359 57.4682C122.384 56.7117 122.457 55.9431 122.579 55.1622C122.847 52.2827 123.078 49.818 123.273 47.7682C123.468 45.694 123.627 43.937 123.749 42.4972C123.87 41.0575 123.968 39.8861 124.041 38.9832C124.139 38.0559 124.212 37.2872 124.26 36.6772C124.334 36.0671 124.382 35.5669 124.407 35.1764C124.455 34.7616 124.504 34.3589 124.553 33.9685C124.65 33.1876 124.736 32.6385 124.809 32.3213C124.906 32.0041 125.187 31.7966 125.65 31.699C126.795 31.4794 127.88 31.2842 128.903 31.1134C129.951 30.9182 130.975 30.7229 131.974 30.5277C132.998 30.3081 134.034 30.0763 135.082 29.8322C136.13 29.5882 137.238 29.2954 138.408 28.9537C138.457 28.9537 138.506 28.9537 138.555 28.9537C138.603 28.9293 138.652 28.9171 138.701 28.9171C138.993 28.9171 139.139 29.0147 139.139 29.21V29.2832C139.042 30.1129 138.957 30.8937 138.884 31.6258C138.81 32.3579 138.737 33.1144 138.664 33.8953C138.591 34.6518 138.506 35.4692 138.408 36.3477C138.335 37.2262 138.238 38.2511 138.116 39.4225C137.994 40.5694 137.848 41.8993 137.677 43.4123C137.507 44.9253 137.299 46.6823 137.056 48.6833C136.909 50.1474 136.763 51.6116 136.617 53.0758C136.471 54.5155 136.398 55.8577 136.398 57.1022C136.398 57.7855 136.446 58.4199 136.544 59.0056C136.641 59.5669 136.812 60.0549 137.056 60.4698C137.324 60.8602 137.665 61.1652 138.079 61.3849C138.494 61.6045 139.03 61.7143 139.688 61.7143C140.2 61.7143 140.894 61.6045 141.772 61.3849C142.649 61.1408 143.526 60.7382 144.404 60.1769C145.281 59.5913 146.049 58.8348 146.707 57.9075C147.389 56.9558 147.779 55.76 147.877 54.3203C148.047 51.9044 148.194 49.8912 148.316 48.2806C148.462 46.6457 148.584 45.2791 148.681 44.181C148.779 43.0585 148.864 42.119 148.937 41.3625C149.01 40.606 149.071 39.8861 149.12 39.2029C149.193 38.4952 149.254 37.7509 149.303 36.97C149.351 36.1647 149.4 35.1642 149.449 33.9685C149.522 33.1632 149.607 32.6141 149.705 32.3213C149.827 32.0041 150.107 31.7966 150.546 31.699C152.763 31.2598 155.03 30.8205 157.345 30.3813C159.661 29.9176 161.927 29.332 164.145 28.6243C164.34 28.6243 164.45 28.6609 164.474 28.7341C164.523 28.7829 164.547 28.8683 164.547 28.9903L161.111 64.9354Z" fill="#2FBAC2"/>
<path d="M170.214 53.9542C170.555 50.6111 170.872 47.3045 171.164 44.0346C171.457 40.7646 171.737 37.4093 172.005 33.9685C172.054 33.1632 172.127 32.6141 172.224 32.3213C172.346 32.0041 172.627 31.7966 173.065 31.699C175.137 31.2842 177.306 30.8571 179.573 30.4179C181.839 29.9542 184.033 29.3686 186.153 28.6609C186.226 28.6365 186.336 28.6243 186.482 28.6243C186.75 28.6243 186.884 28.7219 186.884 28.9171L183.594 65.1551C183.521 65.9604 183.435 66.5216 183.338 66.8388C183.241 67.1317 182.972 67.3269 182.534 67.4245C180.462 68.059 178.366 68.7667 176.246 69.5475C174.125 70.3528 171.883 71.1459 169.519 71.9268C169.446 71.9512 169.336 71.9634 169.19 71.9634C168.922 71.9634 168.788 71.8414 168.788 71.5974C168.788 71.573 168.812 71.2313 168.861 70.5725C168.91 69.9136 168.971 69.0717 169.044 68.0468C169.141 67.0219 169.239 65.8627 169.336 64.5694C169.434 63.2761 169.531 61.9827 169.629 60.6894C169.751 59.396 169.86 58.1637 169.958 56.9924C170.055 55.7966 170.141 54.7839 170.214 53.9542ZM180.267 18.5216C179.195 20.0102 178.293 21.2425 177.562 22.2186C176.855 23.1703 176.27 23.9268 175.807 24.4881C175.344 25.0493 174.978 25.4398 174.71 25.6594C174.442 25.879 174.223 25.9888 174.052 25.9888C173.906 25.9888 173.784 25.94 173.687 25.8424C173.175 25.5008 172.712 25.2079 172.298 24.9639C171.883 24.6955 171.493 24.4637 171.128 24.2684C170.762 24.0488 170.384 23.8414 169.994 23.6462C169.629 23.4509 169.214 23.2435 168.751 23.0239C168.41 22.8287 168.24 22.5724 168.24 22.2552C168.264 22.06 168.301 21.8282 168.349 21.5597C168.422 21.2913 168.532 20.9497 168.678 20.5348L175.441 0.878495C175.563 0.536858 175.685 0.305033 175.807 0.18302C175.929 0.0610066 176.063 0 176.209 0C176.331 0 176.453 0.036604 176.575 0.109812C176.697 0.158617 176.819 0.219624 176.94 0.292832C178.841 1.58617 180.73 2.69649 182.607 3.62379C184.508 4.52669 186.384 5.46619 188.237 6.4423C188.675 6.71073 188.895 7.04016 188.895 7.43061C188.895 7.82105 188.688 8.3213 188.273 8.93137C187.323 10.0295 186.531 10.9446 185.897 11.6767C185.288 12.3843 184.703 13.0676 184.142 13.7265C183.606 14.3854 183.046 15.0808 182.461 15.8129C181.876 16.545 181.145 17.4479 180.267 18.5216Z" fill="#2FBAC2"/>
<path d="M207.064 57.5414C207.308 58.0295 207.649 58.5297 208.088 59.0422C208.551 59.5303 209.075 59.9817 209.66 60.3965C210.269 60.8114 210.927 61.153 211.634 61.4215C212.341 61.6655 213.072 61.7875 213.827 61.7875C214.875 61.7875 215.862 61.3849 216.789 60.5796C217.715 59.7499 218.519 58.6518 219.201 57.2852C219.908 55.8943 220.457 54.3203 220.846 52.5633C221.236 50.7819 221.431 48.9395 221.431 47.0361C221.431 45.8648 221.322 44.7545 221.102 43.7051C220.907 42.6558 220.591 41.7407 220.152 40.9598C219.713 40.179 219.14 39.5567 218.434 39.093C217.751 38.6294 216.923 38.3976 215.948 38.3976C214.364 38.3976 212.913 38.8612 211.597 39.7885C210.281 40.7158 209.172 41.8993 208.271 43.3391L207.064 57.5414ZM193.465 71.2679C193.123 71.3411 192.855 71.3777 192.66 71.3777C191.88 71.3777 191.49 70.9141 191.49 69.9868C191.49 69.8648 191.49 69.7428 191.49 69.6207C191.515 69.4987 191.539 69.3645 191.564 69.2181L195.804 17.4235C195.804 17.3503 195.804 17.2771 195.804 17.2039C195.829 17.1307 195.841 17.0697 195.841 17.0208C195.841 16.9232 195.829 16.8378 195.804 16.7646C195.804 16.6914 195.804 16.6304 195.804 16.5816C195.804 16.362 195.877 16.1912 196.024 16.0691C196.194 15.9227 196.609 15.7641 197.267 15.5933L207.539 13.1408C207.807 13.092 208.161 12.9822 208.6 12.8114C209.038 12.6406 209.465 12.5552 209.879 12.5552C210.196 12.5552 210.488 12.6284 210.756 12.7748C211.049 12.9212 211.195 13.2018 211.195 13.6167C211.195 13.6655 211.183 13.7143 211.159 13.7631C211.159 13.8119 211.159 13.8607 211.159 13.9095C211.134 14.0315 211.073 14.5684 210.976 15.5201C210.878 16.4718 210.769 17.6309 210.647 18.9975C210.525 20.3396 210.391 21.7916 210.245 23.3533C210.098 24.8907 209.964 26.3427 209.843 27.7092C209.721 29.0513 209.611 30.1983 209.513 31.15C209.416 32.1017 209.355 32.6385 209.331 32.7606C211.11 31.5892 212.95 30.6131 214.851 29.8322C216.752 29.0269 218.653 28.6243 220.554 28.6243C223.064 28.6243 225.233 29.149 227.061 30.1983C228.889 31.2232 230.4 32.6019 231.594 34.3345C232.789 36.0427 233.666 38.0193 234.227 40.2644C234.812 42.5094 235.104 44.8277 235.104 47.2191C235.104 49.1469 234.921 51.0869 234.556 53.0391C234.214 54.967 233.703 56.8216 233.02 58.603C232.362 60.3843 231.521 62.0559 230.498 63.6177C229.499 65.1795 228.341 66.5338 227.025 67.6807C225.733 68.8277 224.283 69.7306 222.674 70.3894C221.066 71.0483 219.323 71.3777 217.447 71.3777C215.18 71.3777 213.108 70.8775 211.232 69.877C209.355 68.8765 207.612 67.5831 206.004 65.997C205.955 66.5826 205.919 67.0463 205.894 67.3879C205.87 67.7295 205.785 67.998 205.638 68.1932C205.517 68.364 205.322 68.5104 205.053 68.6324C204.785 68.7301 204.383 68.8399 203.847 68.9619C203.579 69.0351 203.104 69.1571 202.421 69.3279C201.763 69.4743 200.959 69.6451 200.008 69.8404C199.082 70.06 198.046 70.2918 196.901 70.5358C195.78 70.7799 194.634 71.0239 193.465 71.2679Z" fill="#2FBAC2"/>
<path d="M261.682 28.6243C263.997 28.6243 266.093 29.0636 267.97 29.942C269.871 30.7961 271.491 31.9187 272.832 33.3096C274.197 34.6762 275.245 36.2135 275.976 37.9217C276.707 39.6299 277.073 41.3381 277.073 43.0463C277.073 44.5592 276.609 46.0844 275.683 47.6218C274.757 49.1347 273.453 50.5013 271.772 51.7214C270.114 52.9415 268.116 53.9298 265.776 54.6863C263.436 55.4428 260.865 55.8211 258.062 55.8211C256.6 55.8211 255.065 55.6746 253.456 55.3818C253.554 56.4311 253.858 57.334 254.37 58.0905C254.882 58.847 255.528 59.4692 256.308 59.9573C257.088 60.4454 257.965 60.8114 258.94 61.0554C259.939 61.275 260.963 61.3849 262.011 61.3849C263.181 61.3849 264.302 61.2872 265.374 61.092C266.471 60.8724 267.519 60.5918 268.518 60.2501C269.517 59.9085 270.48 59.5303 271.406 59.1154C272.332 58.7006 273.21 58.2857 274.038 57.8709C274.258 57.8221 274.44 57.7855 274.587 57.7611C274.757 57.7123 274.916 57.6879 275.062 57.6879C275.062 57.6879 275.05 57.8831 275.025 58.2735C275.025 58.664 275.025 59.213 275.025 59.9207C275.025 60.6284 275.013 61.4825 274.989 62.483C274.989 63.4835 274.977 64.5938 274.952 65.8139C275.025 65.936 275.074 66.058 275.098 66.18C275.123 66.302 275.135 66.3996 275.135 66.4728C275.135 66.7656 274.867 67.0829 274.331 67.4245C273.795 67.7661 273.088 68.12 272.21 68.486C271.357 68.8521 270.37 69.2059 269.249 69.5475C268.152 69.8892 267.031 70.1942 265.886 70.4626C264.74 70.7555 263.631 70.9751 262.559 71.1215C261.487 71.2923 260.548 71.3777 259.744 71.3777C257.112 71.3777 254.553 70.9141 252.067 69.9868C249.605 69.0839 247.412 67.7783 245.486 66.0702C243.585 64.362 242.062 62.2878 240.917 59.8475C239.771 57.4072 239.199 54.6619 239.199 51.6116C239.199 48.4148 239.747 45.4255 240.844 42.6436C241.94 39.8373 243.476 37.3971 245.45 35.3228C247.448 33.2486 249.825 31.6136 252.579 30.4179C255.333 29.2222 258.367 28.6243 261.682 28.6243ZM261.243 38.361C260.244 38.361 259.318 38.5806 258.465 39.0198C257.636 39.4347 256.868 40.0447 256.161 40.85C255.479 41.6309 254.882 42.5826 254.37 43.7051C253.858 44.8033 253.444 46.0234 253.127 47.3655C255.637 46.9263 257.721 46.4626 259.378 45.9746C261.036 45.4865 262.364 44.9985 263.363 44.5104C264.363 43.998 265.069 43.4977 265.484 43.0097C265.898 42.4972 266.105 42.0092 266.105 41.5455C266.105 41.1063 265.935 40.6914 265.593 40.301C265.276 39.9105 264.874 39.5689 264.387 39.2761C263.9 38.9832 263.363 38.7636 262.778 38.6172C262.218 38.4464 261.706 38.361 261.243 38.361Z" fill="#2FBAC2"/>
<path d="M285.737 70.6457C285.859 68.8643 285.981 67.1439 286.102 65.4845C286.224 63.8251 286.334 62.2145 286.431 60.6528L287.747 43.3757C287.894 42.058 288.016 40.8622 288.113 39.7885C288.211 38.6904 288.284 37.6289 288.332 36.604C288.405 35.5547 288.466 34.5053 288.515 33.456C288.588 32.3823 288.661 31.1988 288.735 29.9054C287.93 29.881 287.077 29.8688 286.175 29.8688C285.298 29.8688 284.372 29.8688 283.397 29.8688H276.341C276.073 29.8688 275.903 29.7712 275.83 29.576C275.781 29.3564 275.756 29.1612 275.756 28.9903V28.7341L279.778 18.1556L279.741 18.0092C279.741 17.8871 279.814 17.7895 279.961 17.7163C280.131 17.6187 280.497 17.5455 281.057 17.4967C284.421 17.3015 287.674 17.1185 290.818 16.9476C293.987 16.7524 297.106 16.5816 300.177 16.4352C303.272 16.2888 306.355 16.1423 309.426 15.9959C312.522 15.8495 315.702 15.7153 318.968 15.5933C319.26 15.5933 319.565 15.6299 319.882 15.7031C320.223 15.7763 320.394 16.0447 320.394 16.5084C320.394 16.5572 320.382 16.606 320.357 16.6548C320.333 16.7036 320.321 16.7524 320.321 16.8012C319.931 17.8017 319.565 18.7534 319.224 19.6563C318.907 20.5592 318.59 21.4499 318.273 22.3284C317.957 23.2069 317.627 24.0976 317.286 25.0005C316.969 25.9034 316.616 26.8551 316.226 27.8556C316.202 27.88 316.153 28.002 316.08 28.2217C316.007 28.4169 315.897 28.6487 315.751 28.9171C315.605 29.1612 315.41 29.393 315.166 29.6126C314.922 29.8322 314.618 29.9542 314.252 29.9786C314.13 29.9542 314.008 29.942 313.886 29.942C313.765 29.942 313.63 29.942 313.484 29.942H303.723C303.601 31.1866 303.48 32.5043 303.358 33.8953C303.26 35.2862 303.138 36.6406 302.992 37.9583L300.323 66.546C300.299 66.7656 300.25 66.9853 300.177 67.2049C300.128 67.4245 299.97 67.5831 299.702 67.6807L289.356 71.4143C289.088 71.512 288.735 71.634 288.296 71.7804C287.857 71.9268 287.431 72 287.016 72C286.675 72 286.37 71.9146 286.102 71.7438C285.859 71.573 285.737 71.2557 285.737 70.7921V70.6457Z" fill="#2FBAC2"/>
<path d="M334.724 28.6243C337.04 28.6243 339.136 29.0636 341.012 29.942C342.913 30.7961 344.534 31.9187 345.875 33.3096C347.239 34.6762 348.287 36.2135 349.019 37.9217C349.75 39.6299 350.115 41.3381 350.115 43.0463C350.115 44.5592 349.652 46.0844 348.726 47.6218C347.8 49.1347 346.496 50.5013 344.814 51.7214C343.157 52.9415 341.159 53.9298 338.819 54.6863C336.479 55.4428 333.908 55.8211 331.105 55.8211C329.643 55.8211 328.107 55.6746 326.499 55.3818C326.596 56.4311 326.901 57.334 327.413 58.0905C327.925 58.847 328.57 59.4692 329.35 59.9573C330.13 60.4454 331.008 60.8114 331.983 61.0554C332.982 61.275 334.005 61.3849 335.053 61.3849C336.223 61.3849 337.344 61.2872 338.417 61.092C339.514 60.8724 340.561 60.5918 341.561 60.2501C342.56 59.9085 343.523 59.5303 344.449 59.1154C345.375 58.7006 346.252 58.2857 347.081 57.8709C347.3 57.8221 347.483 57.7855 347.629 57.7611C347.8 57.7123 347.958 57.6879 348.105 57.6879C348.105 57.6879 348.092 57.8831 348.068 58.2735C348.068 58.664 348.068 59.213 348.068 59.9207C348.068 60.6284 348.056 61.4825 348.031 62.483C348.031 63.4835 348.019 64.5938 347.995 65.8139C348.068 65.936 348.117 66.058 348.141 66.18C348.166 66.302 348.178 66.3996 348.178 66.4728C348.178 66.7656 347.91 67.0829 347.373 67.4245C346.837 67.7661 346.13 68.12 345.253 68.486C344.4 68.8521 343.413 69.2059 342.292 69.5475C341.195 69.8892 340.074 70.1942 338.929 70.4626C337.783 70.7555 336.674 70.9751 335.602 71.1215C334.529 71.2923 333.591 71.3777 332.787 71.3777C330.155 71.3777 327.596 70.9141 325.11 69.9868C322.648 69.0839 320.455 67.7783 318.529 66.0702C316.628 64.362 315.105 62.2878 313.96 59.8475C312.814 57.4072 312.241 54.6619 312.241 51.6116C312.241 48.4148 312.79 45.4255 313.886 42.6436C314.983 39.8373 316.519 37.3971 318.493 35.3228C320.491 33.2486 322.867 31.6136 325.621 30.4179C328.375 29.2222 331.41 28.6243 334.724 28.6243ZM334.286 38.361C333.286 38.361 332.36 38.5806 331.507 39.0198C330.679 39.4347 329.911 40.0447 329.204 40.85C328.522 41.6309 327.925 42.5826 327.413 43.7051C326.901 44.8033 326.487 46.0234 326.17 47.3655C328.68 46.9263 330.764 46.4626 332.421 45.9746C334.079 45.4865 335.407 44.9985 336.406 44.5104C337.405 43.998 338.112 43.4977 338.526 43.0097C338.941 42.4972 339.148 42.0092 339.148 41.5455C339.148 41.1063 338.977 40.6914 338.636 40.301C338.319 39.9105 337.917 39.5689 337.43 39.2761C336.942 38.9832 336.406 38.7636 335.821 38.6172C335.261 38.4464 334.749 38.361 334.286 38.361Z" fill="#2FBAC2"/>
<path d="M353.954 51.6116C353.954 48.4148 354.539 45.4255 355.709 42.6436C356.903 39.8373 358.536 37.3971 360.607 35.3228C362.703 33.2486 365.165 31.6136 367.992 30.4179C370.844 29.2222 373.939 28.6243 377.278 28.6243C379.544 28.6243 381.482 28.8073 383.091 29.1734C384.699 29.5394 386.015 29.9542 387.039 30.4179C388.062 30.8571 388.806 31.272 389.269 31.6624C389.756 32.0285 390 32.2237 390 32.2481C390 32.3945 389.939 32.8094 389.817 33.4926C389.72 34.1515 389.598 34.9324 389.452 35.8353C389.33 36.7138 389.208 37.6289 389.086 38.5806C388.989 39.5079 388.94 40.3132 388.94 40.9964C388.94 41.1185 388.903 41.2527 388.83 41.3991C388.757 41.5455 388.562 41.6187 388.245 41.6187C387.953 41.6187 387.526 41.5211 386.966 41.3259C386.405 41.1063 385.711 40.8744 384.882 40.6304C384.078 40.3864 383.139 40.1668 382.067 39.9715C381.019 39.7519 379.849 39.6421 378.557 39.6421C376.949 39.6421 375.499 39.9349 374.207 40.5206C372.915 41.0819 371.806 41.8749 370.88 42.8999C369.954 43.9004 369.235 45.0961 368.723 46.487C368.236 47.878 367.992 49.3788 367.992 50.9893C367.992 52.6731 368.248 54.1129 368.76 55.3086C369.296 56.4799 370.003 57.4438 370.88 58.2003C371.758 58.9324 372.769 59.4692 373.915 59.8109C375.06 60.1525 376.266 60.3233 377.534 60.3233C378.996 60.3233 380.471 60.1281 381.957 59.7377C383.444 59.3228 384.845 58.7494 386.161 58.0173C386.21 57.9929 386.308 57.9807 386.454 57.9807C386.576 57.9807 386.661 58.0417 386.71 58.1637C386.783 58.2857 386.819 58.5175 386.819 58.8592C386.819 59.6401 386.819 60.5918 386.819 61.7143C386.819 62.8124 386.807 63.8739 386.783 64.8988C386.783 65.8993 386.771 66.7534 386.746 67.4611C386.722 68.1688 386.698 68.5226 386.673 68.5226C385.796 69.1083 384.845 69.5841 383.822 69.9502C382.798 70.3162 381.738 70.6091 380.641 70.8287C379.569 71.0483 378.484 71.1947 377.388 71.2679C376.291 71.3411 375.231 71.3777 374.207 71.3777C371.355 71.3777 368.699 70.9019 366.237 69.9502C363.776 68.9985 361.631 67.6563 359.803 65.9237C358 64.1912 356.574 62.1169 355.526 59.7011C354.478 57.2608 353.954 54.5643 353.954 51.6116Z" fill="#2FBAC2"/>
</svg>
